<svg viewBox="0 0 1024 1024" version="1.1" xmlns="http://www.w3.org/2000/svg" desc="Created with imagetracer.js version 1.2.6" ><path fill="rgb(255,255,255)" stroke="rgb(255,255,255)" stroke-width="0" opacity="0" d="M 0 0 L 1024 0 L 1024 1024 L 0 1024 L 0 0 Z M 355 272 L 341 276 L 325 286 L 314 304 L 311 315 Q 309 341 321 354 Q 332 369 354 373 Q 380 375 393 363 Q 408 352 412 331 Q 414 318 411 311 L 402 293 Q 394 282 382 276 L 366 272 L 355 272 Z M 561 310 L 560 311 L 546 311 L 545 312 L 537 312 L 531 314 L 526 314 L 498 322 Q 462 336 436 359 Q 414 377 400 403 L 398 405 L 333 405 L 324 409 L 317 417 L 314 428 L 314 484 L 314 486 L 314 552 L 313 553 L 314 555 L 314 670 L 318 681 Q 323 689 335 691 L 390 691 L 400 686 Q 406 681 408 672 L 409 611 L 426 634 Q 453 663 493 680 L 531 692 L 548 694 L 549 695 L 558 695 L 559 696 L 592 696 L 593 695 L 602 695 L 635 688 Q 675 675 704 649 Q 734 622 752 582 L 757 569 L 762 550 L 764 533 L 765 532 L 765 523 L 766 522 L 766 497 L 765 496 L 764 479 L 759 457 L 754 442 Q 740 406 717 380 Q 688 346 646 327 Q 627 318 604 314 L 599 314 L 593 312 L 585 312 L 584 311 L 561 310 Z M 313 467 L 312 471 L 313 471 L 313 467 Z " /><path fill="rgb(255,255,255)" stroke="rgb(255,255,255)" stroke-width="0" opacity="0" d="M 555 395 L 574 395 L 598 401 Q 620 411 635 430 Q 648 445 655 467 L 659 486 L 659 513 L 655 532 L 649 548 Q 639 569 622 583 Q 608 595 589 601 L 573 604 L 557 604 L 541 601 L 518 591 L 497 574 Q 482 558 475 535 L 470 510 L 470 490 L 471 489 L 471 482 L 473 472 L 480 452 Q 489 433 504 419 L 527 403 L 544 397 L 555 395 Z " /><path fill="rgb(255,255,255)" stroke="rgb(255,255,255)" stroke-width="0" opacity="0.9882352941176471" d="M 559 344 L 579 344 L 580 345 L 601 347 L 613 350 Q 645 360 668 380 L 669 384 L 668 388 L 665 391 L 659 392 L 639 378 L 616 367 L 598 362 L 586 361 L 585 360 L 554 360 L 534 364 Q 517 369 504 376 Q 479 390 461 411 Q 442 432 433 463 L 315 463 L 314 463 L 314 448 L 421 448 L 422 447 Q 438 406 469 381 Q 487 365 512 355 L 538 347 L 549 346 L 550 345 L 558 345 L 559 344 Z " /><path fill="rgb(255,255,255)" stroke="rgb(255,255,255)" stroke-width="0" opacity="0.9882352941176471" d="M 697 447 Q 713 446 718 457 Q 722 461 721 471 Q 718 475 719 484 L 720 485 L 720 517 L 716 539 L 710 557 L 703 572 Q 690 595 671 612 Q 653 628 630 638 L 613 644 L 599 646 L 599 649 L 593 656 Q 589 660 580 658 L 570 651 L 568 641 Q 570 634 575 630 L 582 627 L 587 627 L 597 632 Q 645 621 672 589 Q 688 571 697 548 L 704 520 L 705 494 L 704 487 L 695 487 L 686 482 L 681 473 L 681 463 Q 683 454 690 450 L 697 447 Z M 700 459 L 696 461 L 693 465 L 694 472 L 699 475 L 705 474 L 708 470 L 707 463 Q 705 459 700 459 Z " /><path fill="rgb(255,255,255)" stroke="rgb(255,255,255)" stroke-width="0" opacity="0.9882352941176471" d="M 313 467 L 313 471 L 312 471 L 313 467 Z " /><path fill="rgb(255,255,255)" stroke="rgb(255,255,255)" stroke-width="0" opacity="0.9882352941176471" d="M 314 493 L 436 493 L 444 499 Q 448 502 447 512 L 442 520 Q 438 524 430 523 Q 423 521 420 517 L 417 508 L 316 508 L 315 509 L 314 493 Z " /><path fill="rgb(255,255,255)" stroke="rgb(255,255,255)" stroke-width="0" opacity="0.9882352941176471" d="M 314 536 L 389 536 L 389 539 Q 395 563 408 580 L 408 586 L 405 590 L 400 591 L 392 586 Q 382 570 377 551 L 315 551 L 314 551 L 314 536 Z " /><path fill="rgb(255,255,255)" stroke="rgb(255,255,255)" stroke-width="0" opacity="0.9921568627450981" d="M 355 272 L 366 272 L 382 276 Q 394 282 402 293 L 411 311 Q 414 318 412 331 Q 408 352 393 363 Q 380 375 354 373 Q 332 369 321 354 Q 309 341 311 315 L 314 304 L 325 286 L 341 276 L 355 272 Z " /><path fill="rgb(255,255,255)" stroke="rgb(255,255,255)" stroke-width="0" opacity="0.9921568627450981" d="M 561 310 L 584 311 L 585 312 L 593 312 L 599 314 L 604 314 Q 627 318 646 327 Q 688 346 717 380 Q 740 406 754 442 L 759 457 L 764 479 L 765 496 L 766 497 L 766 522 L 765 523 L 765 532 L 764 533 L 762 550 L 757 569 L 752 582 Q 734 622 704 649 Q 675 675 635 688 L 602 695 L 593 695 L 592 696 L 559 696 L 558 695 L 549 695 L 548 694 L 531 692 L 493 680 Q 453 663 426 634 L 409 611 L 408 672 Q 406 681 400 686 L 390 691 L 335 691 Q 323 689 318 681 L 314 670 L 314 551 L 377 551 L 377 553 L 388 579 L 397 590 L 402 591 L 407 588 L 408 580 Q 394 562 389 536 L 314 536 L 314 510 L 316 508 L 417 508 L 420 517 L 425 521 Q 428 524 436 523 L 444 518 Q 448 514 447 505 L 442 496 L 436 493 L 314 493 L 314 464 L 315 463 L 433 463 L 433 462 Q 447 419 478 394 Q 500 374 534 364 L 554 360 L 585 360 L 586 361 L 598 362 L 621 369 Q 641 377 656 391 L 663 392 L 668 388 L 669 384 L 668 380 L 665 376 Q 642 360 613 350 L 588 345 L 559 344 L 558 345 L 543 346 L 523 351 L 497 362 Q 468 378 448 402 L 432 425 L 421 448 L 315 448 L 314 448 L 314 428 L 317 417 L 324 409 L 333 405 L 398 405 L 400 403 Q 414 377 436 359 Q 462 336 498 322 L 526 314 L 531 314 L 537 312 L 545 312 L 546 311 L 560 311 L 561 310 Z M 555 395 L 544 397 L 527 403 L 504 419 Q 489 433 480 452 L 473 472 L 471 482 L 471 489 L 470 490 L 470 510 L 475 535 Q 482 558 497 574 L 518 591 L 541 601 L 557 604 L 573 604 L 589 601 Q 608 595 622 583 Q 639 569 649 548 L 655 532 L 659 513 L 659 486 L 655 467 Q 648 445 635 430 Q 620 411 598 401 L 574 395 L 555 395 Z M 697 447 L 690 450 Q 683 454 681 463 L 681 473 L 686 482 L 695 487 L 704 487 L 705 494 L 704 520 L 697 548 Q 688 571 672 589 Q 645 621 597 632 L 587 627 L 582 627 L 575 630 Q 570 634 568 641 L 570 651 L 580 658 Q 589 660 593 656 L 599 649 L 599 646 L 613 644 L 630 638 Q 653 628 671 612 Q 690 595 703 572 L 710 557 L 716 539 L 720 517 L 720 485 L 719 484 Q 718 475 721 471 Q 722 461 718 457 Q 713 446 697 447 Z " /><path fill="rgb(255,255,255)" stroke="rgb(255,255,255)" stroke-width="0" opacity="0.9921568627450981" d="M 700 459 Q 705 459 707 463 L 708 470 L 705 474 L 699 475 L 694 472 L 693 465 L 696 461 L 700 459 Z " /></svg>